<svg id="Email--Streamline-Carbon" xmlns="http://www.w3.org/2000/svg" viewBox="0 0 32 32" height="32" width="32">
    <desc>Email Streamline Icon: https://streamlinehq.com</desc>
    <defs></defs>
    <title>email</title>
    <path d="M28 6H4a2 2 0 0 0 -2 2v16a2 2 0 0 0 2 2h24a2 2 0 0 0 2 -2V8a2 2 0 0 0 -2 -2Zm-2.2 2L16 14.78 6.2 8ZM4 24V8.91l11.43 7.91a1 1 0 0 0 1.14 0L28 8.91V24Z"
          fill="#FFFFFF" stroke-width="1"></path>
    <path id="_Transparent_Rectangle_" d="M0 0h32v32H0Z" fill="none" stroke-width="1"></path>
</svg>