<svg xmlns="http://www.w3.org/2000/svg" xmlns:xlink="http://www.w3.org/1999/xlink" width="2000" zoomAndPan="magnify" viewBox="0 0 1500 1499.999933" height="2000" preserveAspectRatio="xMidYMid meet" version="1.0"><defs><g/></defs><g fill="#efe6dd" fill-opacity="1"><g transform="translate(278.692363, 1026.374892)"><g><path d="M 437.5 -572.65625 L 513.28125 -572.65625 L 513.28125 -241.796875 C 513.28125 -184.242188 506.769531 -138.539062 493.75 -104.6875 C 480.726562 -70.832031 457.222656 -43.289062 423.234375 -22.0625 C 389.253906 -0.84375 344.660156 9.765625 289.453125 9.765625 C 235.804688 9.765625 191.925781 0.519531 157.8125 -17.96875 C 123.695312 -36.457031 99.347656 -63.210938 84.765625 -98.234375 C 70.179688 -133.265625 62.890625 -181.117188 62.890625 -241.796875 L 62.890625 -572.65625 L 138.671875 -572.65625 L 138.671875 -242.1875 C 138.671875 -192.445312 143.289062 -155.789062 152.53125 -132.21875 C 161.78125 -108.65625 177.664062 -90.492188 200.1875 -77.734375 C 222.71875 -64.972656 250.257812 -58.59375 282.8125 -58.59375 C 338.539062 -58.59375 378.253906 -71.222656 401.953125 -96.484375 C 425.648438 -121.742188 437.5 -170.3125 437.5 -242.1875 Z M 437.5 -572.65625 "/></g></g></g><g fill="#efe6dd" fill-opacity="1"><g transform="translate(658.991881, 1026.374892)"><g><path d="M 62.890625 0 L 62.890625 -572.65625 L 316.796875 -572.65625 C 367.835938 -572.65625 406.640625 -567.507812 433.203125 -557.21875 C 459.765625 -546.9375 480.988281 -528.773438 496.875 -502.734375 C 512.757812 -476.691406 520.703125 -447.914062 520.703125 -416.40625 C 520.703125 -375.78125 507.550781 -341.535156 481.25 -313.671875 C 454.945312 -285.804688 414.320312 -268.097656 359.375 -260.546875 C 379.425781 -250.910156 394.660156 -241.40625 405.078125 -232.03125 C 427.210938 -211.71875 448.175781 -186.328125 467.96875 -155.859375 L 567.578125 0 L 472.265625 0 L 396.484375 -119.140625 C 374.347656 -153.515625 356.117188 -179.816406 341.796875 -198.046875 C 327.472656 -216.273438 314.644531 -229.035156 303.3125 -236.328125 C 291.988281 -243.617188 280.46875 -248.695312 268.75 -251.5625 C 260.15625 -253.382812 246.09375 -254.296875 226.5625 -254.296875 L 138.671875 -254.296875 L 138.671875 0 Z M 138.671875 -319.921875 L 301.5625 -319.921875 C 336.195312 -319.921875 363.28125 -323.5 382.8125 -330.65625 C 402.34375 -337.820312 417.1875 -349.28125 427.34375 -365.03125 C 437.5 -380.789062 442.578125 -397.914062 442.578125 -416.40625 C 442.578125 -443.488281 432.742188 -465.753906 413.078125 -483.203125 C 393.421875 -500.648438 362.367188 -509.375 319.921875 -509.375 L 138.671875 -509.375 Z M 138.671875 -319.921875 "/></g></g></g></svg>